<svg xmlns="http://www.w3.org/2000/svg" xmlns:xlink="http://www.w3.org/1999/xlink" xmlns:serif="http://www.serif.com/" width="100%" height="100%" viewBox="0 0 136 75" xml:space="preserve" style="fill-rule:evenodd;clip-rule:evenodd;stroke-linejoin:round;stroke-miterlimit:2;">    <g>        <path d="M0,0.006L63.611,0.006C63.611,0.006 68,-0.357 68,4.696L68,43.526L0,43.526L0,0.006Z" style="fill:rgb(177,0,52);fill-rule:nonzero;"/>        <rect x="22.485" y="5.76" width="8.618" height="8.616" style="fill:white;"/>        <rect x="3.272" y="20.035" width="3.817" height="1.524" style="fill:white;"/>        <path d="M6.887,37.784L6.887,9.604C6.887,9.604 6.521,5.774 10.547,5.774L20.949,5.774L20.949,7.279L18.167,7.279C18.167,7.279 15.488,7.16 15.488,10.044L15.488,37.784L6.887,37.784Z" style="fill:white;fill-rule:nonzero;"/>        <path d="M17.02,20.039L58.121,20.039C58.121,20.039 62.345,19.682 62.345,24.038L62.345,37.677L53.789,37.677L53.789,24.27C53.789,24.27 53.832,21.54 51.166,21.54L46.768,21.54L46.768,37.677L38.158,37.677L38.158,24.271C38.158,24.271 38.216,21.495 35.537,21.495L31.098,21.495L31.098,37.754L22.469,37.754L22.469,21.54L17.02,21.54L17.02,20.039Z" style="fill:white;fill-rule:nonzero;"/>    </g>    <path d="M1.169,50.303L1.169,52.683L4.181,52.683L4.181,53.677L1.169,53.677L1.169,57.817L0,57.817L0,49.25L5.292,49.25L5.292,50.303L1.169,50.303Z" style="fill:rgb(177,0,52);fill-rule:nonzero;"/>    <path d="M5.79,54.671C5.79,53.704 6.05,52.923 6.571,52.329C7.091,51.734 7.776,51.437 8.626,51.437C9.523,51.437 10.219,51.723 10.714,52.294C11.209,52.865 11.457,53.657 11.457,54.671C11.457,55.681 11.203,56.478 10.697,57.06C10.189,57.643 9.5,57.935 8.626,57.935C7.733,57.935 7.038,57.64 6.539,57.051C6.039,56.463 5.79,55.669 5.79,54.671ZM6.959,54.671C6.959,56.242 7.515,57.028 8.626,57.028C9.145,57.028 9.551,56.817 9.846,56.396C10.14,55.976 10.287,55.4 10.287,54.671C10.287,53.119 9.733,52.344 8.626,52.344C8.119,52.344 7.715,52.55 7.413,52.963C7.11,53.377 6.959,53.945 6.959,54.671L6.959,54.671Z" style="fill:rgb(177,0,52);fill-rule:nonzero;"/>    <path d="M16.03,52.624C15.789,52.456 15.545,52.373 15.299,52.373C14.905,52.373 14.561,52.554 14.267,52.916C13.973,53.279 13.825,53.716 13.825,54.227L13.825,57.817L12.714,57.817L12.714,51.554L13.825,51.554L13.825,52.554C14.231,51.81 14.833,51.437 15.632,51.437C15.832,51.437 16.118,51.472 16.492,51.542L16.03,52.624L16.03,52.624Z" style="fill:rgb(177,0,52);fill-rule:nonzero;"/>    <path d="M16.873,57.443L17.264,56.391C17.884,56.796 18.383,56.999 18.761,56.999C19.448,56.999 19.791,56.71 19.791,56.133C19.791,55.72 19.459,55.365 18.796,55.068C18.286,54.835 17.941,54.657 17.764,54.536C17.587,54.416 17.433,54.278 17.302,54.124C17.171,53.97 17.074,53.807 17.01,53.633C16.945,53.459 16.913,53.273 16.913,53.074C16.913,52.56 17.101,52.158 17.475,51.87C17.849,51.581 18.338,51.437 18.943,51.437C19.399,51.437 19.974,51.581 20.668,51.87L20.352,52.899C19.912,52.548 19.469,52.373 19.024,52.373C18.759,52.373 18.536,52.435 18.355,52.56C18.173,52.685 18.083,52.843 18.083,53.033C18.083,53.436 18.311,53.739 18.767,53.945L19.562,54.309C20.05,54.53 20.405,54.784 20.627,55.068C20.849,55.354 20.96,55.71 20.96,56.139C20.96,56.7 20.763,57.14 20.37,57.458C19.976,57.775 19.43,57.935 18.732,57.935C18.073,57.935 17.453,57.771 16.873,57.443L16.873,57.443Z" style="fill:rgb(177,0,52);fill-rule:nonzero;"/>    <path d="M26.855,52.063L26.306,52.847C26.192,52.733 25.993,52.626 25.706,52.524C25.419,52.423 25.138,52.373 24.861,52.373C24.257,52.373 23.777,52.584 23.422,53.007C23.067,53.431 22.89,54.01 22.89,54.747C22.89,55.48 23.071,56.039 23.434,56.423C23.796,56.807 24.3,56.999 24.943,56.999C25.442,56.999 25.945,56.806 26.452,56.42L26.891,57.355C26.294,57.741 25.555,57.935 24.674,57.935C23.82,57.935 23.114,57.647 22.557,57.074C21.999,56.502 21.721,55.726 21.721,54.747C21.721,53.749 22.01,52.947 22.589,52.344C23.168,51.739 23.96,51.437 24.966,51.437C25.29,51.437 25.641,51.505 26.019,51.642C26.397,51.778 26.676,51.918 26.855,52.062L26.855,52.063Z" style="fill:rgb(177,0,52);fill-rule:nonzero;"/>    <path d="M31.92,57.817L31.92,53.882C31.92,53.414 31.805,53.045 31.575,52.776C31.345,52.507 31.021,52.373 30.604,52.373C30.335,52.373 30.065,52.451 29.794,52.609C29.523,52.768 29.315,52.951 29.171,53.162L29.171,57.817L28.06,57.817L28.06,48.986L29.171,48.986L29.171,52.244C29.319,52.014 29.558,51.822 29.888,51.668C30.217,51.514 30.557,51.437 30.908,51.437C31.571,51.437 32.09,51.655 32.467,52.092C32.843,52.528 33.031,53.125 33.031,53.882L33.031,57.817L31.92,57.817L31.92,57.817Z" style="fill:rgb(177,0,52);fill-rule:nonzero;"/>    <path d="M35.657,51.554L35.657,55.548C35.657,56.516 36.076,56.999 36.915,56.999C37.281,56.999 37.616,56.894 37.92,56.683C38.225,56.473 38.425,56.229 38.523,55.952L38.523,51.554L39.634,51.554L39.634,57.817L38.523,57.817L38.523,56.952C38.398,57.197 38.147,57.423 37.771,57.627C37.395,57.832 37.028,57.935 36.669,57.935C35.982,57.935 35.458,57.737 35.093,57.344C34.728,56.95 34.546,56.391 34.546,55.665L34.546,51.554L35.657,51.554L35.657,51.554Z" style="fill:rgb(177,0,52);fill-rule:nonzero;"/>    <path d="M45.002,57.817L45.002,54.174C45.002,53.507 44.902,53.04 44.701,52.773C44.5,52.506 44.164,52.373 43.692,52.373C43.439,52.373 43.174,52.448 42.897,52.601C42.62,52.753 42.408,52.939 42.26,53.162L42.26,57.817L41.148,57.817L41.148,51.554L41.909,51.554L42.26,52.361C42.626,51.745 43.225,51.437 44.055,51.437C45.427,51.437 46.114,52.271 46.114,53.94L46.114,57.817L45.002,57.817L45.002,57.817Z" style="fill:rgb(177,0,52);fill-rule:nonzero;"/>    <path d="M47.465,59.531L48.067,58.642C48.714,59.075 49.311,59.291 49.857,59.291C50.36,59.291 50.756,59.204 51.047,59.031C51.337,58.857 51.482,58.642 51.482,58.385C51.482,57.878 51.116,57.624 50.383,57.624C50.258,57.624 50.032,57.655 49.705,57.718C49.377,57.78 49.122,57.812 48.938,57.812C48.05,57.812 47.605,57.477 47.605,56.806C47.605,56.599 47.709,56.412 47.918,56.244C48.126,56.076 48.385,55.956 48.693,55.882C47.812,55.469 47.371,54.751 47.371,53.729C47.371,53.074 47.599,52.528 48.056,52.092C48.512,51.655 49.075,51.437 49.746,51.437C50.362,51.437 50.843,51.563 51.19,51.817L51.746,51.15L52.471,51.835L51.804,52.338C52.089,52.708 52.231,53.191 52.231,53.788C52.231,54.42 52.034,54.95 51.641,55.379C51.247,55.808 50.73,56.053 50.091,56.115L49.172,56.209C49.063,56.221 48.917,56.263 48.734,56.335C48.551,56.407 48.459,56.502 48.459,56.618C48.459,56.778 48.65,56.858 49.032,56.858C49.2,56.858 49.461,56.828 49.816,56.768C50.17,56.707 50.434,56.677 50.605,56.677C51.221,56.677 51.702,56.824 52.047,57.118C52.392,57.413 52.564,57.821 52.564,58.344C52.564,58.921 52.306,59.387 51.79,59.741C51.273,60.097 50.619,60.273 49.828,60.273C49.422,60.273 48.995,60.201 48.547,60.058C48.098,59.913 47.738,59.737 47.465,59.531L47.465,59.531ZM49.822,52.332C49.436,52.332 49.121,52.468 48.877,52.741C48.633,53.014 48.512,53.346 48.512,53.735C48.512,54.172 48.629,54.533 48.865,54.82C49.101,55.106 49.42,55.25 49.822,55.25C50.215,55.25 50.523,55.11 50.746,54.832C50.968,54.553 51.079,54.188 51.079,53.735C51.079,53.346 50.959,53.014 50.719,52.741C50.479,52.468 50.18,52.332 49.822,52.332L49.822,52.332Z" style="fill:rgb(177,0,52);fill-rule:nonzero;"/>    <path d="M53.296,57.443L53.688,56.391C54.308,56.796 54.807,56.999 55.185,56.999C55.871,56.999 56.214,56.71 56.214,56.133C56.214,55.72 55.882,55.365 55.22,55.068C54.709,54.835 54.365,54.657 54.187,54.536C54.01,54.416 53.856,54.278 53.726,54.124C53.595,53.97 53.498,53.807 53.433,53.633C53.369,53.459 53.336,53.273 53.336,53.074C53.336,52.56 53.524,52.158 53.898,51.87C54.272,51.581 54.762,51.437 55.366,51.437C55.822,51.437 56.397,51.581 57.091,51.87L56.775,52.899C56.335,52.548 55.892,52.373 55.448,52.373C55.183,52.373 54.959,52.435 54.778,52.56C54.597,52.685 54.506,52.843 54.506,53.033C54.506,53.436 54.734,53.739 55.19,53.945L55.986,54.309C56.473,54.53 56.828,54.784 57.05,55.068C57.272,55.354 57.384,55.71 57.384,56.139C57.384,56.7 57.187,57.14 56.793,57.458C56.399,57.775 55.854,57.935 55.155,57.935C54.497,57.935 53.876,57.771 53.296,57.443L53.296,57.443Z" style="fill:rgb(177,0,52);fill-rule:nonzero;"/>    <path d="M59.091,57.817L59.091,52.489L58.231,52.489L58.231,51.554L60.203,51.554L60.203,57.817L59.091,57.817ZM59.7,49.186C59.891,49.186 60.053,49.253 60.188,49.387C60.322,49.521 60.39,49.683 60.39,49.869C60.39,50.061 60.322,50.224 60.188,50.357C60.053,50.492 59.891,50.56 59.7,50.56C59.512,50.56 59.352,50.492 59.217,50.357C59.083,50.224 59.015,50.061 59.015,49.869C59.015,49.679 59.082,49.517 59.214,49.384C59.347,49.252 59.508,49.186 59.7,49.186Z" style="fill:rgb(177,0,52);fill-rule:nonzero;"/>    <path d="M65.823,57.817L65.823,54.174C65.823,53.507 65.722,53.04 65.521,52.773C65.321,52.506 64.984,52.373 64.513,52.373C64.259,52.373 63.994,52.448 63.717,52.601C63.44,52.753 63.228,52.939 63.08,53.162L63.08,57.817L61.969,57.817L61.969,51.554L62.729,51.554L63.08,52.361C63.446,51.745 64.045,51.437 64.875,51.437C66.248,51.437 66.934,52.271 66.934,53.94L66.934,57.817L65.823,57.817L65.823,57.817Z" style="fill:rgb(177,0,52);fill-rule:nonzero;"/>    <path d="M68.104,57.443L68.495,56.391C69.115,56.796 69.614,56.999 69.992,56.999C70.679,56.999 71.021,56.71 71.021,56.133C71.021,55.72 70.69,55.365 70.027,55.068C69.517,54.835 69.172,54.657 68.995,54.536C68.818,54.416 68.664,54.278 68.533,54.124C68.402,53.97 68.305,53.807 68.241,53.633C68.176,53.459 68.144,53.273 68.144,53.074C68.144,52.56 68.332,52.158 68.706,51.87C69.08,51.581 69.569,51.437 70.174,51.437C70.63,51.437 71.205,51.581 71.899,51.87L71.583,52.899C71.143,52.548 70.7,52.373 70.255,52.373C69.99,52.373 69.767,52.435 69.586,52.56C69.404,52.685 69.314,52.843 69.314,53.033C69.314,53.436 69.542,53.739 69.998,53.945L70.793,54.309C71.281,54.53 71.636,54.784 71.858,55.068C72.08,55.354 72.191,55.71 72.191,56.139C72.191,56.7 71.994,57.14 71.601,57.458C71.207,57.775 70.661,57.935 69.963,57.935C69.304,57.935 68.684,57.771 68.104,57.443L68.104,57.443Z" style="fill:rgb(177,0,52);fill-rule:nonzero;"/>    <path d="M73.759,52.431C73.759,52.431 73.034,52.431 73.034,52.431L73.034,51.554L73.759,51.554L73.759,50.244L74.87,49.816L74.87,51.554L76.589,51.554L76.589,52.431L74.87,52.431L74.87,55.542C74.87,56.068 74.959,56.443 75.136,56.665C75.313,56.888 75.599,56.999 75.993,56.999C76.278,56.999 76.572,56.927 76.876,56.782L77.04,57.759C76.58,57.876 76.075,57.935 75.525,57.935C75.03,57.935 74.612,57.75 74.271,57.382C73.93,57.014 73.759,56.548 73.759,55.987L73.759,52.431Z" style="fill:rgb(177,0,52);fill-rule:nonzero;"/>    <path d="M78.648,57.817L78.648,52.489L77.788,52.489L77.788,51.554L79.759,51.554L79.759,57.817L78.648,57.817ZM79.256,49.186C79.447,49.186 79.61,49.253 79.745,49.387C79.879,49.521 79.946,49.683 79.946,49.869C79.946,50.061 79.879,50.224 79.745,50.357C79.61,50.492 79.447,50.56 79.256,50.56C79.069,50.56 78.908,50.492 78.773,50.357C78.639,50.224 78.572,50.061 78.572,49.869C78.572,49.679 78.638,49.517 78.771,49.384C78.903,49.252 79.065,49.186 79.256,49.186Z" style="fill:rgb(177,0,52);fill-rule:nonzero;"/>    <path d="M81.923,52.431C81.923,52.431 81.198,52.431 81.198,52.431L81.198,51.554L81.923,51.554L81.923,50.244L83.034,49.816L83.034,51.554L84.753,51.554L84.753,52.431L83.034,52.431L83.034,55.542C83.034,56.068 83.123,56.443 83.3,56.665C83.478,56.888 83.763,56.999 84.157,56.999C84.442,56.999 84.736,56.927 85.04,56.782L85.204,57.759C84.744,57.876 84.239,57.935 83.689,57.935C83.194,57.935 82.776,57.75 82.435,57.382C82.094,57.014 81.923,56.548 81.923,55.987L81.923,52.431Z" style="fill:rgb(177,0,52);fill-rule:nonzero;"/>    <path d="M87.327,51.554L87.327,55.548C87.327,56.516 87.746,56.999 88.584,56.999C88.951,56.999 89.286,56.894 89.59,56.683C89.895,56.473 90.095,56.229 90.193,55.952L90.193,51.554L91.304,51.554L91.304,57.817L90.193,57.817L90.193,56.952C90.068,57.197 89.817,57.423 89.441,57.627C89.065,57.832 88.698,57.935 88.339,57.935C87.652,57.935 87.127,57.737 86.763,57.344C86.398,56.95 86.216,56.391 86.216,55.665L86.216,51.554L87.327,51.554Z" style="fill:rgb(177,0,52);fill-rule:nonzero;"/>    <path d="M93.216,52.431C93.216,52.431 92.491,52.431 92.491,52.431L92.491,51.554L93.216,51.554L93.216,50.244L94.327,49.816L94.327,51.554L96.046,51.554L96.046,52.431L94.327,52.431L94.327,55.542C94.327,56.068 94.416,56.443 94.593,56.665C94.771,56.888 95.056,56.999 95.45,56.999C95.735,56.999 96.029,56.927 96.333,56.782L96.497,57.759C96.037,57.876 95.532,57.935 94.982,57.935C94.487,57.935 94.069,57.75 93.728,57.382C93.387,57.014 93.216,56.548 93.216,55.987L93.216,52.431Z" style="fill:rgb(177,0,52);fill-rule:nonzero;"/>    <path d="M104.562,49.98C104.336,49.902 104.125,49.863 103.93,49.863C103.591,49.863 103.312,49.992 103.091,50.25C102.87,50.507 102.761,50.833 102.761,51.227C102.761,51.332 102.771,51.44 102.79,51.554L104.064,51.554L104.064,52.489L102.79,52.489L102.79,57.817L101.679,57.817L101.679,52.489L100.767,52.489L100.767,51.554L101.679,51.554C101.679,50.755 101.875,50.127 102.27,49.671C102.663,49.215 103.184,48.986 103.831,48.986C104.154,48.986 104.501,49.045 104.872,49.162L104.562,49.98Z" style="fill:rgb(177,0,52);fill-rule:nonzero;"/>    <path d="M106.655,51.554L106.655,55.548C106.655,56.516 107.074,56.999 107.913,56.999C108.279,56.999 108.614,56.894 108.919,56.683C109.223,56.473 109.424,56.229 109.521,55.952L109.521,51.554L110.632,51.554L110.632,57.817L109.521,57.817L109.521,56.952C109.396,57.197 109.146,57.423 108.77,57.627C108.394,57.832 108.026,57.935 107.667,57.935C106.98,57.935 106.456,57.737 106.091,57.344C105.727,56.95 105.544,56.391 105.544,55.665L105.544,51.554L106.655,51.554ZM106.532,48.969C106.716,48.969 106.871,49.032 106.998,49.159C107.124,49.286 107.187,49.44 107.187,49.624C107.187,49.808 107.124,49.963 106.998,50.092C106.871,50.221 106.716,50.285 106.532,50.285C106.35,50.285 106.193,50.221 106.064,50.092C105.937,49.963 105.872,49.808 105.872,49.624C105.872,49.44 105.937,49.286 106.064,49.159C106.193,49.032 106.35,48.969 106.532,48.969ZM109.293,48.969C109.477,48.969 109.632,49.032 109.761,49.159C109.89,49.286 109.954,49.44 109.954,49.624C109.954,49.808 109.89,49.963 109.761,50.092C109.632,50.221 109.477,50.285 109.293,50.285C109.109,50.285 108.955,50.221 108.828,50.092C108.701,49.963 108.638,49.808 108.638,49.624C108.638,49.44 108.701,49.286 108.828,49.159C108.955,49.032 109.109,48.969 109.293,48.969Z" style="fill:rgb(177,0,52);fill-rule:nonzero;"/>    <path d="M115.551,52.624C115.309,52.456 115.065,52.373 114.819,52.373C114.426,52.373 114.081,52.554 113.787,52.916C113.493,53.279 113.346,53.716 113.346,54.227L113.346,57.817L112.234,57.817L112.234,51.554L113.346,51.554L113.346,52.554C113.751,51.81 114.354,51.437 115.152,51.437C115.352,51.437 115.638,51.472 116.013,51.542L115.551,52.624L115.551,52.624Z" style="fill:rgb(177,0,52);fill-rule:nonzero;"/>    <rect x="0" y="63.62" width="1.169" height="8.567" style="fill:rgb(177,0,52);fill-rule:nonzero;"/>    <path d="M6.895,72.188L6.895,68.544C6.895,67.877 6.794,67.41 6.594,67.144C6.393,66.876 6.057,66.743 5.585,66.743C5.332,66.743 5.066,66.818 4.79,66.971C4.513,67.123 4.3,67.31 4.152,67.532L4.152,72.187L3.041,72.187L3.041,65.924L3.801,65.924L4.152,66.731C4.519,66.115 5.117,65.807 5.948,65.807C7.32,65.807 8.006,66.642 8.006,68.311L8.006,72.187L6.895,72.187L6.895,72.188Z" style="fill:rgb(177,0,52);fill-rule:nonzero;"/>    <path d="M12.972,64.351C12.746,64.272 12.535,64.233 12.34,64.233C12.001,64.233 11.721,64.362 11.501,64.62C11.28,64.877 11.17,65.203 11.17,65.597C11.17,65.702 11.18,65.811 11.2,65.924L12.475,65.924L12.475,66.859L11.2,66.859L11.2,72.187L10.088,72.187L10.088,66.859L9.176,66.859L9.176,65.924L10.088,65.924C10.088,65.125 10.285,64.497 10.679,64.041C11.073,63.585 11.593,63.356 12.241,63.356C12.564,63.356 12.911,63.415 13.282,63.532L12.972,64.351L12.972,64.351Z" style="fill:rgb(177,0,52);fill-rule:nonzero;"/>    <path d="M13.604,69.041C13.604,68.074 13.864,67.293 14.384,66.699C14.904,66.104 15.59,65.807 16.44,65.807C17.336,65.807 18.032,66.093 18.527,66.664C19.022,67.235 19.271,68.027 19.271,69.041C19.271,70.051 19.017,70.848 18.51,71.43C18.003,72.013 17.313,72.305 16.44,72.305C15.547,72.305 14.851,72.01 14.352,71.421C13.853,70.833 13.604,70.039 13.604,69.041ZM14.773,69.041C14.773,70.612 15.329,71.398 16.44,71.398C16.958,71.398 17.365,71.188 17.659,70.767C17.954,70.346 18.101,69.771 18.101,69.041C18.101,67.489 17.547,66.714 16.44,66.714C15.933,66.714 15.528,66.92 15.226,67.333C14.924,67.747 14.773,68.315 14.773,69.041L14.773,69.041Z" style="fill:rgb(177,0,52);fill-rule:nonzero;"/>    <path d="M23.844,66.994C23.602,66.826 23.358,66.743 23.113,66.743C22.719,66.743 22.375,66.924 22.081,67.286C21.786,67.649 21.639,68.086 21.639,68.597L21.639,72.187L20.528,72.187L20.528,65.924L21.639,65.924L21.639,66.924C22.044,66.18 22.646,65.807 23.446,65.807C23.645,65.807 23.931,65.842 24.306,65.912L23.844,66.994L23.844,66.994Z" style="fill:rgb(177,0,52);fill-rule:nonzero;"/>    <path d="M32.347,72.188L32.347,68.223C32.347,67.236 31.92,66.743 31.066,66.743C30.797,66.743 30.546,66.825 30.312,66.991C30.078,67.157 29.918,67.345 29.833,67.556L29.833,72.188L28.721,72.188L28.721,67.737C28.721,67.429 28.605,67.187 28.373,67.009C28.141,66.831 27.834,66.743 27.452,66.743C27.23,66.743 26.993,66.828 26.742,67C26.49,67.172 26.312,67.36 26.207,67.567L26.207,72.188L25.095,72.188L25.095,65.924L25.82,65.924L26.189,66.649C26.618,66.088 27.154,65.807 27.797,65.807C28.694,65.807 29.321,66.086 29.68,66.644C29.805,66.405 30.037,66.207 30.376,66.047C30.715,65.887 31.064,65.807 31.423,65.807C32.07,65.807 32.571,65.999 32.926,66.383C33.281,66.768 33.458,67.307 33.458,68L33.458,72.188L32.347,72.188L32.347,72.188Z" style="fill:rgb(177,0,52);fill-rule:nonzero;"/>    <path d="M38.575,71.468C38.131,72.025 37.45,72.305 36.534,72.305C36.043,72.305 35.617,72.126 35.256,71.77C34.896,71.412 34.715,70.969 34.715,70.438C34.715,69.804 34.993,69.267 35.549,68.828C36.104,68.389 36.813,68.17 37.675,68.17C37.909,68.17 38.174,68.221 38.47,68.321C38.47,67.308 38.018,66.801 37.113,66.801C36.419,66.801 35.885,66.988 35.511,67.362L35.043,66.433C35.253,66.261 35.545,66.114 35.917,65.991C36.29,65.868 36.646,65.807 36.984,65.807C37.893,65.807 38.553,66.014 38.964,66.427C39.375,66.84 39.581,67.497 39.581,68.397L39.581,70.644C39.581,71.193 39.745,71.56 40.072,71.743L40.072,72.299C39.62,72.299 39.282,72.234 39.058,72.105C38.833,71.977 38.673,71.765 38.575,71.468L38.575,71.468ZM38.47,69.111C38.119,69.033 37.874,68.994 37.733,68.994C37.172,68.994 36.713,69.139 36.359,69.427C36.004,69.716 35.827,70.057 35.827,70.45C35.827,71.102 36.21,71.427 36.979,71.427C37.54,71.427 38.037,71.16 38.47,70.626L38.47,69.111L38.47,69.111Z" style="fill:rgb(177,0,52);fill-rule:nonzero;"/>    <path d="M41.728,66.801C41.728,66.801 41.002,66.801 41.002,66.801L41.002,65.924L41.728,65.924L41.728,64.614L42.839,64.187L42.839,65.924L44.558,65.924L44.558,66.801L42.839,66.801L42.839,69.912C42.839,70.438 42.928,70.813 43.105,71.035C43.282,71.258 43.568,71.369 43.962,71.369C44.247,71.369 44.541,71.297 44.845,71.152L45.009,72.129C44.548,72.246 44.043,72.305 43.494,72.305C42.999,72.305 42.581,72.12 42.239,71.752C41.898,71.384 41.728,70.918 41.728,70.357L41.728,66.801Z" style="fill:rgb(177,0,52);fill-rule:nonzero;"/>    <path d="M46.617,72.188L46.617,66.859L45.757,66.859L45.757,65.924L47.728,65.924L47.728,72.188L46.617,72.188ZM47.225,63.556C47.416,63.556 47.579,63.623 47.713,63.757C47.848,63.892 47.915,64.053 47.915,64.239C47.915,64.431 47.848,64.594 47.713,64.728C47.579,64.862 47.416,64.93 47.225,64.93C47.038,64.93 46.877,64.862 46.742,64.728C46.608,64.594 46.541,64.431 46.541,64.239C46.541,64.049 46.607,63.887 46.739,63.754C46.872,63.622 47.034,63.556 47.225,63.556Z" style="fill:rgb(177,0,52);fill-rule:nonzero;"/>    <path d="M49.085,69.041C49.085,68.074 49.345,67.293 49.866,66.699C50.386,66.104 51.071,65.807 51.921,65.807C52.818,65.807 53.514,66.093 54.009,66.664C54.504,67.235 54.752,68.027 54.752,69.041C54.752,70.051 54.498,70.848 53.992,71.43C53.484,72.013 52.794,72.305 51.921,72.305C51.028,72.305 50.333,72.01 49.833,71.421C49.334,70.833 49.085,70.039 49.085,69.041ZM50.254,69.041C50.254,70.612 50.81,71.398 51.921,71.398C52.439,71.398 52.846,71.188 53.141,70.767C53.435,70.346 53.582,69.771 53.582,69.041C53.582,67.489 53.028,66.714 51.921,66.714C51.414,66.714 51.01,66.92 50.708,67.333C50.405,67.747 50.254,68.315 50.254,69.041L50.254,69.041Z" style="fill:rgb(177,0,52);fill-rule:nonzero;"/>    <path d="M59.775,72.188L59.775,68.544C59.775,67.877 59.675,67.41 59.474,67.144C59.273,66.876 58.937,66.743 58.465,66.743C58.212,66.743 57.947,66.818 57.67,66.971C57.393,67.123 57.181,67.31 57.033,67.532L57.033,72.187L55.921,72.187L55.921,65.924L56.682,65.924L57.033,66.731C57.399,66.115 57.998,65.807 58.828,65.807C60.2,65.807 60.887,66.642 60.887,68.311L60.887,72.187L59.775,72.187L59.775,72.188Z" style="fill:rgb(177,0,52);fill-rule:nonzero;"/>    <path d="M62.057,71.813L62.448,70.761C63.068,71.166 63.567,71.369 63.945,71.369C64.632,71.369 64.975,71.08 64.975,70.503C64.975,70.09 64.643,69.735 63.98,69.438C63.47,69.205 63.125,69.027 62.948,68.906C62.771,68.786 62.617,68.648 62.486,68.494C62.355,68.34 62.258,68.177 62.194,68.003C62.129,67.829 62.097,67.644 62.097,67.444C62.097,66.93 62.285,66.528 62.659,66.24C63.033,65.951 63.522,65.807 64.127,65.807C64.583,65.807 65.158,65.951 65.852,66.24L65.536,67.27C65.096,66.918 64.653,66.743 64.208,66.743C63.943,66.743 63.72,66.805 63.539,66.93C63.357,67.055 63.267,67.213 63.267,67.403C63.267,67.806 63.495,68.109 63.951,68.315L64.747,68.679C65.234,68.9 65.589,69.154 65.811,69.438C66.033,69.724 66.145,70.08 66.145,70.509C66.145,71.07 65.947,71.51 65.554,71.828C65.16,72.146 64.614,72.305 63.916,72.305C63.257,72.305 62.637,72.141 62.057,71.813L62.057,71.813Z" style="fill:rgb(177,0,52);fill-rule:nonzero;"/>    <path d="M74.566,72.188L74.566,68.223C74.566,67.236 74.139,66.743 73.285,66.743C73.016,66.743 72.765,66.825 72.531,66.991C72.297,67.157 72.137,67.345 72.051,67.556L72.051,72.188L70.94,72.188L70.94,67.737C70.94,67.429 70.824,67.187 70.592,67.009C70.36,66.831 70.053,66.743 69.671,66.743C69.449,66.743 69.212,66.828 68.96,67C68.709,67.172 68.53,67.36 68.425,67.567L68.425,72.188L67.314,72.188L67.314,65.924L68.039,65.924L68.408,66.649C68.836,66.088 69.373,65.807 70.016,65.807C70.913,65.807 71.54,66.086 71.899,66.644C72.024,66.405 72.256,66.207 72.595,66.047C72.934,65.887 73.283,65.807 73.642,65.807C74.289,65.807 74.79,65.999 75.145,66.383C75.5,66.768 75.677,67.307 75.677,68L75.677,72.188L74.566,72.188L74.566,72.188Z" style="fill:rgb(177,0,52);fill-rule:nonzero;"/>    <path d="M80.794,71.468C80.35,72.025 79.669,72.305 78.753,72.305C78.262,72.305 77.836,72.126 77.476,71.77C77.115,71.412 76.935,70.969 76.935,70.438C76.935,69.804 77.212,69.267 77.768,68.828C78.324,68.389 79.032,68.17 79.894,68.17C80.128,68.17 80.393,68.221 80.689,68.321C80.689,67.308 80.237,66.801 79.333,66.801C78.639,66.801 78.104,66.988 77.73,67.362L77.262,66.433C77.473,66.261 77.764,66.114 78.137,65.991C78.509,65.868 78.865,65.807 79.204,65.807C80.112,65.807 80.772,66.014 81.184,66.427C81.595,66.84 81.8,67.497 81.8,68.397L81.8,70.644C81.8,71.193 81.964,71.56 82.292,71.743L82.292,72.299C81.839,72.299 81.501,72.234 81.277,72.105C81.053,71.977 80.892,71.765 80.794,71.468L80.794,71.468ZM80.689,69.111C80.338,69.033 80.093,68.994 79.953,68.994C79.391,68.994 78.933,69.139 78.578,69.427C78.223,69.716 78.046,70.057 78.046,70.45C78.046,71.102 78.43,71.427 79.198,71.427C79.759,71.427 80.256,71.16 80.689,70.626L80.689,69.111L80.689,69.111Z" style="fill:rgb(177,0,52);fill-rule:nonzero;"/>    <path d="M87.403,72.188L87.403,68.544C87.403,67.877 87.302,67.41 87.102,67.144C86.901,66.876 86.564,66.743 86.093,66.743C85.839,66.743 85.574,66.818 85.297,66.971C85.021,67.123 84.808,67.31 84.66,67.532L84.66,72.187L83.549,72.187L83.549,65.924L84.309,65.924L84.66,66.731C85.026,66.115 85.625,65.807 86.456,65.807C87.828,65.807 88.514,66.642 88.514,68.311L88.514,72.187L87.403,72.187L87.403,72.188Z" style="fill:rgb(177,0,52);fill-rule:nonzero;"/>    <path d="M93.631,71.468C93.187,72.025 92.506,72.305 91.59,72.305C91.099,72.305 90.673,72.126 90.313,71.77C89.952,71.412 89.771,70.969 89.771,70.438C89.771,69.804 90.049,69.267 90.605,68.828C91.161,68.389 91.869,68.17 92.731,68.17C92.965,68.17 93.23,68.221 93.526,68.321C93.526,67.308 93.074,66.801 92.169,66.801C91.476,66.801 90.941,66.988 90.567,67.362L90.099,66.433C90.31,66.261 90.601,66.114 90.974,65.991C91.346,65.868 91.702,65.807 92.041,65.807C92.949,65.807 93.609,66.014 94.021,66.427C94.432,66.84 94.637,67.497 94.637,68.397L94.637,70.644C94.637,71.193 94.801,71.56 95.128,71.743L95.128,72.299C94.676,72.299 94.338,72.234 94.114,72.105C93.89,71.977 93.729,71.765 93.631,71.468L93.631,71.468ZM93.526,69.111C93.175,69.033 92.93,68.994 92.79,68.994C92.228,68.994 91.77,69.139 91.415,69.427C91.06,69.716 90.883,70.057 90.883,70.45C90.883,71.102 91.267,71.427 92.035,71.427C92.596,71.427 93.093,71.16 93.526,70.626L93.526,69.111L93.526,69.111Z" style="fill:rgb(177,0,52);fill-rule:nonzero;"/>    <path d="M96.158,73.901L96.76,73.012C97.408,73.445 98.004,73.661 98.55,73.661C99.053,73.661 99.45,73.574 99.74,73.401C100.031,73.228 100.175,73.012 100.175,72.755C100.175,72.248 99.809,71.994 99.077,71.994C98.952,71.994 98.725,72.025 98.398,72.088C98.07,72.15 97.815,72.182 97.631,72.182C96.743,72.182 96.298,71.847 96.298,71.176C96.298,70.969 96.403,70.782 96.611,70.614C96.82,70.446 97.078,70.326 97.386,70.252C96.505,69.839 96.064,69.121 96.064,68.1C96.064,67.444 96.292,66.898 96.749,66.462C97.205,66.025 97.768,65.807 98.439,65.807C99.055,65.807 99.537,65.934 99.883,66.188L100.439,65.521L101.164,66.205L100.498,66.708C100.782,67.078 100.924,67.562 100.924,68.158C100.924,68.79 100.727,69.32 100.333,69.749C99.94,70.178 99.423,70.423 98.784,70.485L97.866,70.579C97.756,70.591 97.61,70.633 97.427,70.705C97.244,70.777 97.152,70.872 97.152,70.988C97.152,71.148 97.343,71.229 97.725,71.229C97.893,71.229 98.154,71.198 98.509,71.138C98.864,71.077 99.126,71.047 99.298,71.047C99.915,71.047 100.395,71.194 100.74,71.488C101.085,71.783 101.257,72.191 101.257,72.714C101.257,73.291 101,73.757 100.483,74.111C99.966,74.467 99.312,74.644 98.521,74.644C98.115,74.644 97.688,74.571 97.24,74.428C96.792,74.283 96.431,74.107 96.158,73.901L96.158,73.901ZM98.515,66.702C98.128,66.702 97.814,66.838 97.57,67.111C97.327,67.384 97.205,67.716 97.205,68.105C97.205,68.542 97.323,68.903 97.558,69.19C97.794,69.477 98.113,69.62 98.515,69.62C98.909,69.62 99.216,69.48 99.439,69.202C99.661,68.923 99.772,68.558 99.772,68.105C99.772,67.716 99.652,67.384 99.413,67.111C99.172,66.838 98.874,66.702 98.515,66.702Z" style="fill:rgb(177,0,52);fill-rule:nonzero;"/>    <path d="M107.673,69.164L103.158,69.164C103.158,69.896 103.359,70.46 103.76,70.854C104.115,71.197 104.571,71.369 105.128,71.369C105.764,71.369 106.294,71.184 106.719,70.813L107.187,71.614C107.016,71.786 106.752,71.935 106.398,72.059C105.954,72.223 105.458,72.305 104.913,72.305C104.125,72.305 103.457,72.037 102.907,71.503C102.294,70.915 101.989,70.123 101.989,69.129C101.989,68.096 102.302,67.268 102.93,66.644C103.492,66.086 104.156,65.807 104.924,65.807C105.817,65.807 106.517,66.059 107.024,66.562C107.515,67.045 107.76,67.687 107.76,68.485C107.76,68.731 107.731,68.957 107.673,69.164L107.673,69.164ZM104.977,66.743C104.482,66.743 104.066,66.902 103.731,67.223C103.412,67.526 103.23,67.904 103.187,68.356L106.655,68.356C106.655,67.908 106.515,67.534 106.234,67.234C105.926,66.906 105.507,66.743 104.977,66.743Z" style="fill:rgb(177,0,52);fill-rule:nonzero;"/>    <path d="M116.182,72.188L116.182,68.223C116.182,67.236 115.755,66.743 114.902,66.743C114.632,66.743 114.381,66.825 114.147,66.991C113.914,67.157 113.753,67.345 113.667,67.556L113.667,72.188L112.556,72.188L112.556,67.737C112.556,67.429 112.44,67.187 112.208,67.009C111.976,66.831 111.669,66.743 111.288,66.743C111.065,66.743 110.829,66.828 110.577,67C110.326,67.172 110.147,67.36 110.042,67.567L110.042,72.188L108.93,72.188L108.93,65.924L109.656,65.924L110.024,66.649C110.453,66.088 110.989,65.807 111.632,65.807C112.529,65.807 113.157,66.086 113.515,66.644C113.64,66.405 113.873,66.207 114.211,66.047C114.55,65.887 114.9,65.807 115.258,65.807C115.906,65.807 116.407,65.999 116.761,66.383C117.116,66.768 117.293,67.307 117.293,68L117.293,72.188L116.182,72.188L116.182,72.188Z" style="fill:rgb(177,0,52);fill-rule:nonzero;"/>    <path d="M124.148,69.164L119.633,69.164C119.633,69.896 119.833,70.46 120.236,70.854C120.59,71.197 121.046,71.369 121.604,71.369C122.24,71.369 122.77,71.184 123.195,70.813L123.663,71.614C123.491,71.786 123.228,71.935 122.873,72.059C122.428,72.223 121.933,72.305 121.387,72.305C120.6,72.305 119.931,72.037 119.381,71.503C118.769,70.915 118.463,70.123 118.463,69.129C118.463,68.096 118.777,67.268 119.405,66.644C119.966,66.086 120.631,65.807 121.399,65.807C122.292,65.807 122.992,66.059 123.499,66.562C123.99,67.045 124.236,67.687 124.236,68.485C124.236,68.731 124.207,68.957 124.148,69.164L124.148,69.164ZM121.452,66.743C120.957,66.743 120.542,66.902 120.207,67.223C119.886,67.526 119.706,67.904 119.663,68.356L123.13,68.356C123.13,67.908 122.99,67.534 122.709,67.234C122.401,66.906 121.982,66.743 121.452,66.743L121.452,66.743Z" style="fill:rgb(177,0,52);fill-rule:nonzero;"/>    <path d="M129.259,72.188L129.259,68.544C129.259,67.877 129.159,67.41 128.958,67.144C128.757,66.876 128.42,66.743 127.949,66.743C127.696,66.743 127.43,66.818 127.154,66.971C126.876,67.123 126.665,67.31 126.516,67.532L126.516,72.187L125.405,72.187L125.405,65.924L126.166,65.924L126.516,66.731C126.882,66.115 127.481,65.807 128.312,65.807C129.684,65.807 130.371,66.642 130.371,68.311L130.371,72.187L129.259,72.187L129.259,72.188Z" style="fill:rgb(177,0,52);fill-rule:nonzero;"/>    <path d="M132.347,66.801C132.347,66.801 131.622,66.801 131.622,66.801L131.622,65.924L132.347,65.924L132.347,64.614L133.458,64.187L133.458,65.924L135.177,65.924L135.177,66.801L133.458,66.801L133.458,69.912C133.458,70.438 133.547,70.813 133.724,71.035C133.902,71.258 134.187,71.369 134.582,71.369C134.866,71.369 135.161,71.297 135.464,71.152L135.628,72.129C135.167,72.246 134.663,72.305 134.114,72.305C133.618,72.305 133.2,72.12 132.859,71.752C132.518,71.384 132.347,70.918 132.347,70.357L132.347,66.801Z" style="fill:rgb(177,0,52);fill-rule:nonzero;"/></svg>
