<svg width="83" height="83" viewBox="0 0 83 83" fill="none" xmlns="http://www.w3.org/2000/svg">
    <path d="M37.1958 35.2264C37.1958 47.9519 29.9738 53.1638 21.0659 53.1638C12.158 53.1638 4.93604 47.9519 4.93604 35.2264C4.93604 22.5008 21.0659 1.97772 21.0659 1.97772C21.0659 1.97772 37.1958 22.5008 37.1958 35.2264Z" fill="black"/>
    <path d="M21.0661 53.9743C16.1542 53.9743 12.0123 52.4424 9.09434 49.5406C5.80352 46.2741 4.13379 41.4595 4.13379 35.2264C4.13379 29.8038 6.88154 22.4603 12.3122 13.4146C16.3163 6.72754 20.3853 1.53193 20.4258 1.4833C20.5798 1.28877 20.8148 1.17529 21.0661 1.17529C21.3174 1.17529 21.5524 1.28877 21.7064 1.4833C21.747 1.53193 25.8159 6.72754 29.8281 13.4227C35.2588 22.4684 38.0065 29.8119 38.0065 35.2345C38.0065 41.4676 36.3368 46.2822 33.046 49.5487C30.1118 52.4424 25.978 53.9743 21.0661 53.9743ZM21.0661 3.31514C19.7773 5.0335 16.7135 9.21592 13.6901 14.2656C10.067 20.3042 5.75488 28.8474 5.75488 35.2264C5.75488 41.0137 7.2625 45.4393 10.2372 48.3896C12.8472 50.9834 16.6 52.3532 21.0661 52.3532C25.5322 52.3532 29.2851 50.9834 31.895 48.3896C34.8697 45.4393 36.3773 41.0137 36.3773 35.2264C36.3773 28.8393 32.0571 20.2961 28.4259 14.2494C25.4106 9.20781 22.3549 5.02539 21.0661 3.31514Z" fill="white"/>
    <path d="M21.0659 62.5012C20.6201 62.5012 20.2554 62.1365 20.2554 61.6907V14.0468C20.2554 13.601 20.6201 13.2362 21.0659 13.2362C21.5117 13.2362 21.8765 13.601 21.8765 14.0468V61.6907C21.8765 62.1446 21.5117 62.5012 21.0659 62.5012Z" fill="white"/>
    <path d="M21.0663 32.5272C20.8474 32.5272 20.6205 32.4381 20.4665 32.2598L12.1584 23.0114C11.8585 22.6791 11.8828 22.1685 12.2232 21.8686C12.5555 21.5687 13.0662 21.593 13.3661 21.9334L21.6742 31.1817C21.9741 31.5141 21.9498 32.0247 21.6094 32.3246C21.4553 32.4543 21.2608 32.5272 21.0663 32.5272ZM18.7562 42.0269C18.5293 42.0269 18.3023 41.9296 18.1402 41.7432L11.7531 34.2456C11.4613 33.9052 11.5018 33.3945 11.8423 33.1027C12.1827 32.8109 12.6933 32.8515 12.9851 33.1919L19.3722 40.6895C19.664 41.0299 19.6235 41.5405 19.2831 41.8323C19.1291 41.962 18.9427 42.0269 18.7562 42.0269ZM21.0663 23.2789C20.8555 23.2789 20.6529 23.1979 20.4908 23.0438C20.1747 22.7277 20.1747 22.2171 20.4908 21.901L26.116 16.2758C26.4321 15.9597 26.9427 15.9597 27.2589 16.2758C27.575 16.5919 27.575 17.1025 27.2589 17.4187L21.6418 23.0438C21.4797 23.1979 21.2689 23.2789 21.0663 23.2789ZM21.6094 39.8546C21.3905 39.8546 21.1636 39.7654 21.0095 39.5871C20.7096 39.2548 20.7421 38.7441 21.0744 38.4442L29.2771 31.0845C29.6094 30.7846 30.1201 30.817 30.42 31.1493C30.7199 31.4816 30.6875 31.9923 30.3552 32.2922L22.1524 39.652C21.9984 39.7897 21.8039 39.8546 21.6094 39.8546Z" fill="white"/>
    <path d="M64.6898 47.725H59.2592C58.5621 46.2093 52.9774 34.9265 36.6936 34.9346C24.5921 34.9346 1.25645 47.6521 2.30206 50.6754C2.83702 52.2316 3.87452 53.1314 4.22305 57.2165C4.47432 60.1183 5.06602 63.709 5.06602 63.709C5.06602 68.2399 8.7378 71.9198 13.2769 71.9198H80.8927V61.1396C80.8927 52.183 73.6383 47.725 64.6898 47.725Z" fill="black"/>
    <path d="M80.8926 72.7223H13.2687C8.31626 72.7223 4.28785 68.71 4.24732 63.7738C4.16627 63.2713 3.63941 59.9724 3.40435 57.2813C3.16119 54.4363 2.5857 53.2448 2.07505 52.1992C1.87242 51.7858 1.68599 51.3887 1.52388 50.9348C1.33746 50.3836 1.48335 49.7595 1.97779 49.0705C3.58267 46.8172 9.35376 43.1373 16.3488 39.9113C24.3246 36.2314 31.733 34.1159 36.6773 34.1159H36.6935C52.0858 34.1159 58.2379 43.9235 59.7536 46.9063H64.6736C69.472 46.9063 73.6058 48.1222 76.621 50.4241C79.9362 52.953 81.687 56.6491 81.687 61.1314V71.9117C81.7032 72.3575 81.3465 72.7223 80.8926 72.7223ZM3.08013 50.4484C3.20982 50.8051 3.36382 51.1293 3.54214 51.5021C4.08521 52.6126 4.75796 54.0067 5.02544 57.1516C5.26861 59.9886 5.8522 63.5469 5.86031 63.5793C5.86841 63.6198 5.86841 63.6684 5.86841 63.709C5.86841 67.786 9.18355 71.1093 13.2687 71.1093H80.0821V61.1395C80.0821 57.1841 78.5502 53.9257 75.6565 51.721C72.925 49.6379 69.1316 48.5355 64.6898 48.5355H59.2591C58.943 48.5355 58.6593 48.3491 58.5215 48.0654C57.5732 46.0066 52.0534 35.7451 36.7016 35.7451H36.6854C31.6519 35.7451 23.7248 38.1362 15.4734 42.1241C12.0205 43.7938 8.84312 45.6095 6.51685 47.2224C3.42056 49.3866 3.11255 50.3106 3.08013 50.4484Z" fill="white"/>
    <path d="M36.6937 34.9265C31.5467 34.9265 25.1028 37.504 18.7319 40.7462L23.6763 53.7636H53.6827L59.2674 47.7169C58.5622 46.2093 52.9856 34.9184 36.6937 34.9265Z" fill="black"/>
    <path d="M53.6825 54.5822H23.676C23.3356 54.5822 23.0357 54.3715 22.9222 54.0554L17.9779 41.038C17.832 40.6489 18.0022 40.2193 18.367 40.0248C26.2779 35.9964 32.1057 34.1159 36.7015 34.1159H36.7177C53.0584 34.1159 58.9835 45.1637 60.0047 47.3846C60.1425 47.6845 60.0858 48.033 59.8669 48.2762L54.2823 54.3228C54.1202 54.485 53.9094 54.5822 53.6825 54.5822ZM24.2353 52.9611H53.3258L58.2945 47.5791C56.8436 44.7503 51.0968 35.737 36.7096 35.737H36.6934C32.5434 35.737 26.9993 37.504 19.7449 41.1433L24.2353 52.9611Z" fill="white"/>
    <path d="M38.6792 54.5822C38.2334 54.5822 37.8687 54.2175 37.8687 53.7717V34.9265C37.8687 34.4807 38.2334 34.1159 38.6792 34.1159C39.125 34.1159 39.4897 34.4807 39.4897 34.9265V53.7717C39.4897 54.2175 39.125 54.5822 38.6792 54.5822Z" fill="white"/>
    <path d="M13.9009 71.9117C13.9009 73.0113 14.1175 74.1 14.5382 75.1159C14.959 76.1317 15.5758 77.0548 16.3533 77.8323C17.1308 78.6098 18.0538 79.2265 19.0696 79.6473C20.0855 80.0681 21.1743 80.2847 22.2738 80.2847C23.3734 80.2847 24.4622 80.0681 25.478 79.6473C26.4939 79.2265 27.4169 78.6098 28.1944 77.8323C28.9719 77.0548 29.5886 76.1317 30.0094 75.1159C30.4302 74.1 30.6468 73.0113 30.6468 71.9117C30.6468 70.8122 30.4302 69.7234 30.0094 68.7075C29.5886 67.6917 28.9719 66.7686 28.1944 65.9911C27.4169 65.2136 26.4939 64.5969 25.478 64.1761C24.4622 63.7553 23.3734 63.5388 22.2738 63.5388C21.1743 63.5388 20.0855 63.7553 19.0696 64.1761C18.0538 64.5969 17.1308 65.2136 16.3533 65.9911C15.5758 66.7686 14.959 67.6917 14.5382 68.7075C14.1175 69.7234 13.9009 70.8122 13.9009 71.9117Z" fill="black"/>
    <path d="M22.2738 81.0952C17.2079 81.0952 13.0903 76.9776 13.0903 71.9117C13.0903 66.8458 17.2079 62.7282 22.2738 62.7282C27.3397 62.7282 31.4573 66.8458 31.4573 71.9117C31.4573 76.9776 27.3397 81.0952 22.2738 81.0952ZM22.2738 64.3493C18.0995 64.3493 14.7114 67.7455 14.7114 71.9117C14.7114 76.086 18.1076 79.4741 22.2738 79.4741C26.4481 79.4741 29.8362 76.0779 29.8362 71.9117C29.8362 67.7455 26.4481 64.3493 22.2738 64.3493Z" fill="white"/>
    <path d="M53.6826 71.9117C53.6826 74.1324 54.5648 76.262 56.135 77.8323C57.7052 79.4025 59.8349 80.2847 62.0556 80.2847C64.2762 80.2847 66.4059 79.4025 67.9761 77.8323C69.5464 76.262 70.4285 74.1324 70.4285 71.9117C70.4285 69.6911 69.5464 67.5614 67.9761 65.9911C66.4059 64.4209 64.2762 63.5388 62.0556 63.5388C59.8349 63.5388 57.7052 64.4209 56.135 65.9911C54.5648 67.5614 53.6826 69.6911 53.6826 71.9117Z" fill="black"/>
    <path d="M62.0556 81.0952C56.9896 81.0952 52.8721 76.9776 52.8721 71.9117C52.8721 66.8458 56.9896 62.7282 62.0556 62.7282C67.1215 62.7282 71.2391 66.8458 71.2391 71.9117C71.2391 76.9776 67.1215 81.0952 62.0556 81.0952ZM62.0556 64.3493C57.8812 64.3493 54.4932 67.7455 54.4932 71.9117C54.4932 76.086 57.8894 79.4741 62.0556 79.4741C66.2218 79.4741 69.618 76.0779 69.618 71.9117C69.618 67.7455 66.2218 64.3493 62.0556 64.3493Z" fill="white"/>
    <path d="M35.9479 81.7923H4.83105C4.38525 81.7923 4.02051 81.4276 4.02051 80.9818C4.02051 80.5359 4.38525 80.1712 4.83105 80.1712H35.9479C36.3937 80.1712 36.7585 80.5359 36.7585 80.9818C36.7585 81.4276 36.3937 81.7923 35.9479 81.7923ZM80.2605 81.7923H49.1437C48.6978 81.7923 48.3331 81.4276 48.3331 80.9818C48.3331 80.5359 48.6978 80.1712 49.1437 80.1712H80.2605C80.7063 80.1712 81.0711 80.5359 81.0711 80.9818C81.0711 81.4276 80.7063 81.7923 80.2605 81.7923Z" fill="white"/>
</svg>
