<svg width="83" height="83" viewBox="0 0 83 83" fill="none" xmlns="http://www.w3.org/2000/svg">
    <g clip-path="url(#clip0_242_54)">
        <path d="M17.43 26.56C7.85097 26.56 0 34.3869 0 43.9402C0 47.642 1.18192 51.0824 3.18305 53.9102L15.3035 74.8627C17.0009 77.0804 18.1297 76.6596 19.5415 74.7465L32.9095 51.9962C33.1792 51.5065 33.3909 50.9869 33.576 50.4557C34.4243 48.3882 34.8605 46.1749 34.86 43.9402C34.86 34.3869 27.0115 26.56 17.43 26.56ZM17.43 34.704C22.5893 34.704 26.6928 38.7967 26.6928 43.941C26.6928 49.0854 22.5893 53.1764 17.43 53.1764C12.2715 53.1764 8.1672 49.0845 8.1672 43.941C8.1672 38.7967 12.2715 34.704 17.43 34.704Z" fill="black"/>
        <path d="M72.8325 0C67.245 0 62.665 4.56583 62.665 10.1393C62.665 12.2981 63.3539 14.3051 64.5217 15.9543L71.5925 28.1768C72.5827 29.47 73.2409 29.2243 74.0643 28.1088L81.8621 14.8371C82.0198 14.5524 82.1435 14.2494 82.2505 13.939C82.7456 12.7334 83.0002 11.4426 83 10.1393C83 4.565 78.4218 0 72.8325 0ZM72.8325 4.75092C75.8421 4.75092 78.2358 7.138 78.2358 10.1393C78.2358 13.1397 75.8421 15.526 72.8325 15.526C69.8238 15.526 67.4292 13.1397 67.4292 10.1393C67.4292 7.138 69.8238 4.75092 72.8325 4.75092Z" fill="black"/>
        <path fill-rule="evenodd" clip-rule="evenodd" d="M73.2135 31.0519C71.3485 31.0934 69.4785 31.1723 67.6052 31.3109L67.894 35.9025C69.6935 35.7721 71.496 35.6883 73.2998 35.651L73.2135 31.0519ZM63.2742 31.7325C60.3941 32.0903 57.4891 32.5999 54.6173 33.4191L55.6988 37.8687C58.3083 37.1251 61.0125 36.6445 63.7589 36.3034L63.2742 31.7325ZM50.3171 34.9596C49.4566 35.3394 48.6235 35.7784 47.8238 36.2735L47.8204 36.2776L47.8155 36.2793C46.6742 36.9981 45.4715 37.9102 44.4897 39.2357C43.7783 40.1961 43.1965 41.4103 43.0604 42.8462L47.2892 43.3152C47.3208 42.9782 47.4934 42.5333 47.8038 42.115H47.8055V42.1134C48.306 41.4361 49.0563 40.821 49.9486 40.2583L49.9519 40.2566C50.5879 39.8641 51.2501 39.5158 51.9339 39.2142L50.3171 34.9596ZM48.14 45.3636L45.3985 48.8787C46.0484 49.473 46.7298 49.9295 47.388 50.3113L47.3963 50.3154L47.4046 50.3204C49.5892 51.5629 51.8418 52.2643 53.9301 52.9299L55.1303 48.516C53.0428 47.8503 51.0749 47.2079 49.3883 46.2501C48.9053 45.9695 48.482 45.6765 48.14 45.3636ZM59.208 49.7577L58.0361 54.1791L58.5905 54.3517L59.2711 54.5692C61.5238 55.3021 63.6818 56.0847 65.6107 57.1679L67.5678 53.0843C65.2355 51.7737 62.8144 50.9172 60.4813 50.1585L60.4746 50.1569L59.7758 49.9336L59.208 49.7577ZM71.5477 56.1487L68.5406 59.4023C69.251 60.1717 69.7831 61.0971 70.042 62.0533L70.0437 62.0582L70.0454 62.0657C70.3541 63.1821 70.3549 64.4951 70.1134 65.8215L74.2833 66.7112C74.6236 64.8388 74.6784 62.7828 74.119 60.7535C73.6318 58.959 72.7022 57.4003 71.5477 56.1487ZM68.6576 68.5937C68.1981 69.079 67.6903 69.5162 67.142 69.8984H67.1404C65.6464 70.9492 63.9133 71.741 62.0724 72.4216L63.4452 76.7742C65.4588 76.0296 67.5263 75.1166 69.4585 73.7571L69.4635 73.753L69.466 73.7513C70.2596 73.1957 70.9936 72.5595 71.6564 71.8531L68.6576 68.5937ZM58.1664 73.6475C55.4996 74.3647 52.7739 74.9108 50.015 75.3739L50.6657 79.9215C53.5051 79.4443 56.3562 78.8741 59.1898 78.1121L58.1664 73.6475ZM45.8641 76.0014C43.087 76.3807 40.2948 76.6903 37.4944 76.9543L37.8613 81.5375C40.7049 81.2703 43.5534 80.9557 46.3978 80.5664L45.8641 76.0014ZM33.2855 77.3153C30.4793 77.5378 27.6664 77.7187 24.851 77.8714L25.0635 82.4663C27.9063 82.3127 30.7515 82.1293 33.5959 81.9036L33.2855 77.3153ZM20.6205 78.0789C18.9331 78.1578 17.2416 78.2225 15.5459 78.2823L15.6853 82.8813C17.3916 82.8226 19.0976 82.7546 20.8031 82.6771L20.6205 78.0789Z" fill="black"/>
    </g>
    <defs>
        <clipPath id="clip0_242_54">
            <rect width="83" height="83" fill="white"/>
        </clipPath>
    </defs>
</svg>
